<svg xmlns="http://www.w3.org/2000/svg" width="833.121" height="648" viewBox="0 0 833.121 648"><g transform="translate(-719.23 -1414)"><path d="M63.482,363.158H6.574A6.574,6.574,0,0,1,0,356.584V257.732a6.574,6.574,0,0,1,6.574-6.574H63.482a6.574,6.574,0,0,1,6.574,6.574v98.852a6.574,6.574,0,0,1-6.574,6.574" transform="translate(719.23 1296.843)" fill="#0097be"></path><path d="M28.312,614.314H6.575A6.574,6.574,0,0,1,0,607.74V508.888a6.574,6.574,0,0,1,6.575-6.574H28.312a6.574,6.574,0,0,1,6.574,6.574V607.74a6.574,6.574,0,0,1-6.574,6.574" transform="translate(719.23 1179.686)" fill="#0097be"></path><path d="M17.539,865.471H6.574A6.574,6.574,0,0,1,0,858.9V760.045a6.574,6.574,0,0,1,6.574-6.574H17.539a6.574,6.574,0,0,1,6.574,6.574V858.9a6.574,6.574,0,0,1-6.574,6.574" transform="translate(719.23 1062.529)" fill="#0097be"></path><path d="M10.52,1116.628H6.574A6.574,6.574,0,0,1,0,1110.054V1011.2a6.574,6.574,0,0,1,6.574-6.574H10.52a6.574,6.574,0,0,1,6.574,6.574v98.852a6.574,6.574,0,0,1-6.574,6.574" transform="translate(719.23 945.372)" fill="#004050"></path><path d="M422.264,0H8.547C3.826,0,0,2.823,0,6.3V105.7c0,3.482,3.826,6.3,8.547,6.3H554.274c4.72,0,8.547-2.822,8.547-6.3V6.3c0-3.481-3.827-6.3-8.547-6.3Z" transform="translate(719.23 1414)" fill="#01cafd"></path><path d="M28.8,36.04c3.6-1.14,6.9-3.54,6.9-8.58,0-6.84-5.34-11.7-15.24-11.7S5.1,20.62,5.1,27.46c0,4.98,2.58,7.44,5.88,8.58-4.08,1.44-7.92,4.62-7.92,10.2,0,9,6.42,12.66,16.68,12.66,9.66,0,16.92-3.66,16.92-12.66C36.66,40.6,32.88,37.42,28.8,36.04ZM20.28,23.68c2.64,0,4.44,1.5,4.44,4.26a4.187,4.187,0,0,1-4.5,4.5c-2.46,0-4.14-1.5-4.14-4.5A3.982,3.982,0,0,1,20.28,23.68Zm-.42,27.3c-3.54,0-5.64-1.92-5.64-5.34a5.256,5.256,0,0,1,5.58-5.46c3.6,0,5.7,2.16,5.7,5.64C25.5,49,23.82,50.98,19.86,50.98ZM59.58,15.76c-12,0-17.1,7.68-17.1,21.54,0,13.8,5.1,21.54,17.1,21.54s17.1-7.74,17.1-21.54C76.68,23.44,71.58,15.76,59.58,15.76Zm0,35.16c-3.78,0-5.82-3.42-5.82-13.62,0-10.26,2.04-13.62,5.82-13.62S65.4,27.04,65.4,37.3C65.4,47.5,63.36,50.92,59.58,50.92ZM90.9,15.76c-6,0-9.6,3.66-9.6,10.14,0,6.42,3.6,10.14,9.6,10.14s9.6-3.72,9.6-10.14C100.5,19.42,96.9,15.76,90.9,15.76ZM93.48,58,120.3,16.6h-7.38L86.1,58ZM90.9,20.8c2.16,0,3.12,1.8,3.12,5.1,0,3.24-.96,5.1-3.12,5.1s-3.12-1.86-3.12-5.1C87.78,22.6,88.74,20.8,90.9,20.8Zm24,17.76c-6,0-9.6,3.66-9.6,10.14,0,6.42,3.6,10.14,9.6,10.14s9.6-3.72,9.6-10.14C124.5,42.22,120.9,38.56,114.9,38.56Zm0,5.04c2.16,0,3.12,1.8,3.12,5.1,0,3.24-.96,5.1-3.12,5.1s-3.12-1.86-3.12-5.1C111.78,45.4,112.74,43.6,114.9,43.6Z" transform="translate(1301.052 1414)" fill="#01cafd"></path><path d="M26.61,27.53c2.7-.855,5.175-2.655,5.175-6.435,0-5.13-4.005-8.775-11.43-8.775s-11.52,3.645-11.52,8.775c0,3.735,1.935,5.58,4.41,6.435-3.06,1.08-5.94,3.465-5.94,7.65,0,6.75,4.815,9.495,12.51,9.495,7.245,0,12.69-2.745,12.69-9.495C32.5,30.95,29.67,28.565,26.61,27.53Zm-6.39-9.27a3.015,3.015,0,0,1,3.33,3.2,3.14,3.14,0,0,1-3.375,3.375c-1.845,0-3.1-1.125-3.1-3.375A2.987,2.987,0,0,1,20.22,18.26ZM19.9,38.735c-2.655,0-4.23-1.44-4.23-4.005a3.942,3.942,0,0,1,4.185-4.095,3.915,3.915,0,0,1,4.275,4.23C24.135,37.25,22.875,38.735,19.9,38.735ZM43.4,12.32c-4.5,0-7.2,2.745-7.2,7.6,0,4.815,2.7,7.605,7.2,7.605s7.2-2.79,7.2-7.605C50.6,15.065,47.9,12.32,43.4,12.32ZM45.33,44,65.445,12.95H59.91L39.795,44ZM43.4,16.1c1.62,0,2.34,1.35,2.34,3.825,0,2.43-.72,3.825-2.34,3.825s-2.34-1.4-2.34-3.825C41.055,17.45,41.775,16.1,43.4,16.1Zm18,13.32c-4.5,0-7.2,2.745-7.2,7.605,0,4.815,2.7,7.6,7.2,7.6s7.2-2.79,7.2-7.6C68.6,32.165,65.895,29.42,61.4,29.42Zm0,3.78c1.62,0,2.34,1.35,2.34,3.825,0,2.43-.72,3.825-2.34,3.825s-2.34-1.395-2.34-3.825C59.055,34.55,59.775,33.2,61.4,33.2Z" transform="translate(1257.052 1706)" fill="#01cafd"></path><path d="M47.4,37.07v-6.3H43.62V12.95H34.8L20.94,32.615V37.07H35.52V44h8.1V37.07Zm-11.88-6.3H29.265l4.59-6.525A28.823,28.823,0,0,0,35.52,21.5Zm35.1-3.24c2.7-.855,5.175-2.655,5.175-6.435,0-5.13-4.005-8.775-11.43-8.775s-11.52,3.645-11.52,8.775c0,3.735,1.935,5.58,4.41,6.435-3.06,1.08-5.94,3.465-5.94,7.65,0,6.75,4.815,9.495,12.51,9.495,7.245,0,12.69-2.745,12.69-9.495C76.515,30.95,73.68,28.565,70.62,27.53Zm-6.39-9.27a3.015,3.015,0,0,1,3.33,3.2,3.14,3.14,0,0,1-3.375,3.375c-1.845,0-3.1-1.125-3.1-3.375A2.987,2.987,0,0,1,64.23,18.26Zm-.315,20.475c-2.655,0-4.23-1.44-4.23-4.005a4.231,4.231,0,0,1,8.46.135C68.145,37.25,66.885,38.735,63.915,38.735ZM87.4,12.32c-4.5,0-7.2,2.745-7.2,7.6,0,4.815,2.7,7.605,7.2,7.605s7.2-2.79,7.2-7.605C94.6,15.065,91.9,12.32,87.4,12.32ZM89.34,44l20.115-31.05H103.92L83.805,44ZM87.4,16.1c1.62,0,2.34,1.35,2.34,3.825,0,2.43-.72,3.825-2.34,3.825s-2.34-1.4-2.34-3.825C85.065,17.45,85.785,16.1,87.4,16.1Zm18,13.32c-4.5,0-7.2,2.745-7.2,7.605,0,4.815,2.7,7.6,7.2,7.6s7.2-2.79,7.2-7.6C112.6,32.165,109.9,29.42,105.4,29.42Zm0,3.78c1.62,0,2.34,1.35,2.34,3.825,0,2.43-.72,3.825-2.34,3.825s-2.34-1.395-2.34-3.825C103.065,34.55,103.785,33.2,105.4,33.2Z" transform="translate(1230.052 1840)" fill="#0097be"></path><path d="M33.4,37.07v-6.3H29.62V12.95H20.8L6.94,32.615V37.07H21.52V44h8.1V37.07Zm-11.88-6.3H15.265l4.59-6.525A28.823,28.823,0,0,0,21.52,21.5Zm41.67,6.3v-6.3H59.41V12.95H50.59L36.73,32.615V37.07H51.31V44h8.1V37.07Zm-11.88-6.3H45.055l4.59-6.525A28.823,28.823,0,0,0,51.31,21.5ZM73.4,12.32c-4.5,0-7.2,2.745-7.2,7.6,0,4.815,2.7,7.605,7.2,7.605s7.2-2.79,7.2-7.605C80.6,15.065,77.9,12.32,73.4,12.32ZM75.34,44,95.455,12.95H89.92L69.805,44ZM73.4,16.1c1.62,0,2.34,1.35,2.34,3.825,0,2.43-.72,3.825-2.34,3.825s-2.34-1.4-2.34-3.825C71.065,17.45,71.785,16.1,73.4,16.1Zm18,13.32c-4.5,0-7.2,2.745-7.2,7.605,0,4.815,2.7,7.6,7.2,7.6s7.2-2.79,7.2-7.6C98.6,32.165,95.9,29.42,91.4,29.42Zm0,3.78c1.62,0,2.34,1.35,2.34,3.825,0,2.43-.72,3.825-2.34,3.825s-2.34-1.395-2.34-3.825C89.065,34.55,89.785,33.2,91.4,33.2Z" transform="translate(1244.052 1974)" fill="#004050"></path><path d="M30.48,16.6H25.8a16.78,16.78,0,0,0-8.46,2.34L7.08,24.82v9.66l12.6-6.6V58h10.8Zm29.1-.84c-12,0-17.1,7.68-17.1,21.54,0,13.8,5.1,21.54,17.1,21.54s17.1-7.74,17.1-21.54C76.68,23.44,71.58,15.76,59.58,15.76Zm0,35.16c-3.78,0-5.82-3.42-5.82-13.62,0-10.26,2.04-13.62,5.82-13.62S65.4,27.04,65.4,37.3C65.4,47.5,63.36,50.92,59.58,50.92ZM90.9,15.76c-6,0-9.6,3.66-9.6,10.14,0,6.42,3.6,10.14,9.6,10.14s9.6-3.72,9.6-10.14C100.5,19.42,96.9,15.76,90.9,15.76ZM93.48,58,120.3,16.6h-7.38L86.1,58ZM90.9,20.8c2.16,0,3.12,1.8,3.12,5.1,0,3.24-.96,5.1-3.12,5.1s-3.12-1.86-3.12-5.1C87.78,22.6,88.74,20.8,90.9,20.8Zm24,17.76c-6,0-9.6,3.66-9.6,10.14,0,6.42,3.6,10.14,9.6,10.14s9.6-3.72,9.6-10.14C124.5,42.22,120.9,38.56,114.9,38.56Zm0,5.04c2.16,0,3.12,1.8,3.12,5.1,0,3.24-.96,5.1-3.12,5.1s-3.12-1.86-3.12-5.1C111.78,45.4,112.74,43.6,114.9,43.6Z" transform="translate(812.052 1550)" fill="#0097be"></path><path d="M22.74,29.8a12.992,12.992,0,0,0-6.42,1.5l-1.56,2.76L16.08,25H34.8V16.6H7.2L4.14,41.44H14.1c.96-2.52,2.52-3.72,5.28-3.72,3.72,0,5.76,2.82,5.76,6.6,0,3.72-1.92,6.6-5.94,6.6-2.94,0-4.62-1.74-4.92-4.56l-.06-.6H3.42l.06.6c.9,8.82,6.48,12.48,16.44,12.48,8.52,0,16.5-5.1,16.5-14.82C36.42,34.96,31.02,29.8,22.74,29.8ZM51.18,15.76c-6,0-9.6,3.66-9.6,10.14,0,6.42,3.6,10.14,9.6,10.14s9.6-3.72,9.6-10.14C60.78,19.42,57.18,15.76,51.18,15.76ZM53.76,58,80.58,16.6H73.2L46.38,58ZM51.18,20.8c2.16,0,3.12,1.8,3.12,5.1,0,3.24-.96,5.1-3.12,5.1s-3.12-1.86-3.12-5.1C48.06,22.6,49.02,20.8,51.18,20.8Zm24,17.76c-6,0-9.6,3.66-9.6,10.14,0,6.42,3.6,10.14,9.6,10.14s9.6-3.72,9.6-10.14C84.78,42.22,81.18,38.56,75.18,38.56Zm0,5.04c2.16,0,3.12,1.8,3.12,5.1,0,3.24-.96,5.1-3.12,5.1s-3.12-1.86-3.12-5.1C72.06,45.4,73.02,43.6,75.18,43.6Z" transform="translate(776.052 1687)" fill="#0097be"></path><path d="M27.6,36.22c5.4-1.32,7.86-4.56,7.86-9.42,0-5.88-4.68-11.04-14.82-11.04C9.9,15.76,4.74,22,4.02,28.96l-.06.6h10.8l.06-.6c.24-2.7,1.56-5.28,4.74-5.28,3,0,4.62,1.68,4.62,4.38,0,2.82-1.98,4.98-5.94,5.28l-1.62.12v6.96l1.62.06c4.32.18,6.9,1.98,6.9,5.52,0,2.82-2.34,4.92-6.06,4.92-3.54,0-5.58-2.58-6.18-5.46l-.12-.6H1.98l.06.6C2.88,53.74,9,58.84,19.5,58.84c10.44,0,16.92-5.22,16.92-13.14C36.42,40.36,33.48,37.36,27.6,36.22ZM51.18,15.76c-6,0-9.6,3.66-9.6,10.14,0,6.42,3.6,10.14,9.6,10.14s9.6-3.72,9.6-10.14C60.78,19.42,57.18,15.76,51.18,15.76ZM53.76,58,80.58,16.6H73.2L46.38,58ZM51.18,20.8c2.16,0,3.12,1.8,3.12,5.1,0,3.24-.96,5.1-3.12,5.1s-3.12-1.86-3.12-5.1C48.06,22.6,49.02,20.8,51.18,20.8Zm24,17.76c-6,0-9.6,3.66-9.6,10.14,0,6.42,3.6,10.14,9.6,10.14s9.6-3.72,9.6-10.14C84.78,42.22,81.18,38.56,75.18,38.56Zm0,5.04c2.16,0,3.12,1.8,3.12,5.1,0,3.24-.96,5.1-3.12,5.1s-3.12-1.86-3.12-5.1C72.06,45.4,73.02,43.6,75.18,43.6Z" transform="translate(763.052 1817)" fill="#0097be"></path><path d="M20.34,49.6l5.52-5.34c7.98-7.68,10.2-11.4,10.2-16.26,0-7.74-5.4-12.36-15.06-12.36-10.14,0-15.9,5.1-16.8,14.22l-.06.6h10.8l.06-.6c.42-4.32,1.98-6.3,5.1-6.3,2.94,0,4.68,1.74,4.68,4.86,0,3.96-2.1,6.84-8.28,12.66L3.48,53.32V58h32.1V49.6ZM51.18,15.76c-6,0-9.6,3.66-9.6,10.14,0,6.42,3.6,10.14,9.6,10.14s9.6-3.72,9.6-10.14C60.78,19.42,57.18,15.76,51.18,15.76ZM53.76,58,80.58,16.6H73.2L46.38,58ZM51.18,20.8c2.16,0,3.12,1.8,3.12,5.1,0,3.24-.96,5.1-3.12,5.1s-3.12-1.86-3.12-5.1C48.06,22.6,49.02,20.8,51.18,20.8Zm24,17.76c-6,0-9.6,3.66-9.6,10.14,0,6.42,3.6,10.14,9.6,10.14s9.6-3.72,9.6-10.14C84.78,42.22,81.18,38.56,75.18,38.56Zm0,5.04c2.16,0,3.12,1.8,3.12,5.1,0,3.24-.96,5.1-3.12,5.1s-3.12-1.86-3.12-5.1C72.06,45.4,73.02,43.6,75.18,43.6Z" transform="translate(757.052 1950)" fill="#004050"></path><path d="M7.675,12.625a5,5,0,0,0-2.725.725L3.875,14.5l.775-6H12.7V6.75H2.9L1.7,16.775H3.75a3.688,3.688,0,0,1,3.6-2.45c2.3,0,3.675,1.625,3.675,4.225s-1.5,4.1-3.775,4.1c-2.15,0-3.225-1.25-3.625-3.225l-.05-.25H1.425l.025.25c.325,3.25,2.35,4.925,5.825,4.925a5.851,5.851,0,0,0,6.15-5.95C13.425,15.125,11.525,12.625,7.675,12.625ZM29.8,8.5V6.75H15.35V8.5H21.5V24h2.15V8.5ZM46.1,6.75H43.95v7.9h-9.5V6.75H32.3V24h2.15V16.45h9.5V24H46.1ZM59.5,17.625v-1.4H54.25v1.4ZM75.85,6.75H74.475A3.347,3.347,0,0,0,72.6,7.3L68.95,9.575V11.85L73.7,9.025V24h2.15Zm8.975,15.5,4.325-4.275c2.925-2.875,4.2-4.475,4.2-6.825,0-2.575-1.725-4.75-5.25-4.75-3.45,0-5.6,1.9-5.95,5.5l-.025.25h2.15l.025-.25c.25-2.425,1.325-3.8,3.55-3.8a3.016,3.016,0,0,1,3.1,3.3c0,1.675-.975,2.925-3,5L81.7,22.775V24H93.275V22.25ZM110,8.5V6.75H95.55V8.5h6.15V24h2.15V8.5Zm16.3-1.75h-2.15v7.9h-9.5V6.75H112.5V24h2.15V16.45h9.5V24h2.15Zm16.675-.35c-4.9,0-8.15,3.8-8.15,9.05,0,5.05,2.8,8.9,7.825,8.9,4.55,0,6.875-2.725,7.2-5.85l.025-.25h-2.15l-.05.25c-.5,2.475-2.025,4.15-4.9,4.15-3.4,0-5.55-3.05-5.55-7.3,0-4.175,2.175-7.25,5.7-7.25,2.875,0,4.4,1.675,4.9,4.15l.05.25h2.15L150,12.25C149.65,8.875,147.35,6.4,142.975,6.4Zm17.475,0c-5.25,0-8.15,3.7-8.15,8.975,0,5.25,2.9,8.975,8.15,8.975s8.15-3.725,8.15-8.975C168.6,10.1,165.7,6.4,160.45,6.4Zm0,16.25c-3.625,0-5.75-2.8-5.75-7.275,0-4.5,2.125-7.275,5.75-7.275s5.75,2.775,5.75,7.275C166.2,19.85,164.075,22.65,160.45,22.65ZM185.55,24,185.5,6.75h-2.1v8.625c0,2.025.025,4.5.075,6.525L175.35,6.75h-3.3V24h2.15V15.375c0-2.025-.025-4.5-.075-6.525L182.25,24ZM202.8,8.5V6.75H188.35V8.5h6.15V24h2.15V8.5Zm9.875,9.4,2.05,6.1h2.325L211.1,6.75h-2.9L202,24h2.3l2.025-6.1Zm-5.75-1.75,2.675-7.7,2.5,7.7Zm19.25-9.75c-4.9,0-8.15,3.8-8.15,9.05,0,5.05,2.8,8.9,7.825,8.9,4.55,0,6.875-2.725,7.2-5.85l.025-.25h-2.15l-.05.25c-.5,2.475-2.025,4.15-4.9,4.15-3.4,0-5.55-3.05-5.55-7.3,0-4.175,2.175-7.25,5.7-7.25,2.875,0,4.4,1.675,4.9,4.15l.05.25h2.15l-.025-.25C232.85,8.875,230.55,6.4,226.175,6.4ZM249.3,8.5V6.75H234.85V8.5H241V24h2.15V8.5Z" transform="translate(1303.052 1482)" fill="#01cafd"></path><path d="M13.7,19.65V17.9H11.525V6.75H9.375L.825,18.575V19.65h8.55V24h2.15V19.65ZM9.375,17.9H3.55l4.4-6.075c.575-.8,1.025-1.525,1.425-2.2ZM29.8,8.5V6.75H15.35V8.5H21.5V24h2.15V8.5ZM46.1,6.75H43.95v7.9h-9.5V6.75H32.3V24h2.15V16.45h9.5V24H46.1ZM62.775,6.4c-4.9,0-8.15,3.8-8.15,9.05,0,5.05,2.8,8.9,7.825,8.9,4.55,0,6.875-2.725,7.2-5.85l.025-.25h-2.15l-.05.25c-.5,2.475-2.025,4.15-4.9,4.15-3.4,0-5.55-3.05-5.55-7.3,0-4.175,2.175-7.25,5.7-7.25,2.875,0,4.4,1.675,4.9,4.15l.05.25h2.15l-.025-.25C69.45,8.875,67.15,6.4,62.775,6.4Zm17.475,0c-5.25,0-8.15,3.7-8.15,8.975,0,5.25,2.9,8.975,8.15,8.975s8.15-3.725,8.15-8.975C88.4,10.1,85.5,6.4,80.25,6.4Zm0,16.25c-3.625,0-5.75-2.8-5.75-7.275,0-4.5,2.125-7.275,5.75-7.275S86,10.875,86,15.375C86,19.85,83.875,22.65,80.25,22.65ZM105.35,24,105.3,6.75h-2.1v8.625c0,2.025.025,4.5.075,6.525L95.15,6.75h-3.3V24H94V15.375c0-2.025-.025-4.5-.075-6.525L102.05,24ZM122.6,8.5V6.75H108.15V8.5h6.15V24h2.15V8.5Zm9.875,9.4,2.05,6.1h2.325L130.9,6.75H128L121.8,24h2.3l2.025-6.1Zm-5.75-1.75,2.675-7.7,2.5,7.7Zm19.25-9.75c-4.9,0-8.15,3.8-8.15,9.05,0,5.05,2.8,8.9,7.825,8.9,4.55,0,6.875-2.725,7.2-5.85l.025-.25h-2.15l-.05.25c-.5,2.475-2.025,4.15-4.9,4.15-3.4,0-5.55-3.05-5.55-7.3,0-4.175,2.175-7.25,5.7-7.25,2.875,0,4.4,1.675,4.9,4.15l.05.25h2.15L153,12.25C152.65,8.875,150.35,6.4,145.975,6.4ZM169.1,8.5V6.75H154.65V8.5h6.15V24h2.15V8.5Z" transform="translate(814.052 1618)" fill="#0097be"></path><path d="M9.9,14.825a4.142,4.142,0,0,0,3.05-4.05c0-2.6-2-4.375-5.175-4.375-3.5,0-5.625,1.95-5.95,5.075l-.025.25H3.95l.025-.25A3.394,3.394,0,0,1,7.5,8.1a2.843,2.843,0,0,1,3.05,2.925c0,2.175-1.65,3.375-3.7,3.375H6.425v1.75H6.85c2.8,0,4.1,1.15,4.1,3.175,0,2.1-1.525,3.325-3.65,3.325a3.663,3.663,0,0,1-4-3.5l-.025-.25H1.125l.025.25c.375,3.725,2.675,5.2,5.95,5.2,3.325,0,6.25-1.925,6.25-5.15A4.351,4.351,0,0,0,9.9,14.825Zm18.45,4.65c-.15-1.725-.825-3.3-2.225-3.95A4.129,4.129,0,0,0,29.2,11.45c0-2.9-1.8-4.275-4.3-4.6a16.208,16.208,0,0,0-2.25-.1H17V24h2.15V16.575H22.4c.4,0,.825,0,1.225.025,1.7.125,2.375,1.3,2.575,3.075A13.932,13.932,0,0,0,27.125,24H29.5C28.8,23.075,28.55,21.725,28.35,19.475Zm-9.2-4.65V8.5h3.5a10.63,10.63,0,0,1,1.725.1A2.7,2.7,0,0,1,26.9,11.65a2.879,2.879,0,0,1-2.775,3.125,15.613,15.613,0,0,1-1.675.05ZM39.925,6.85a15.839,15.839,0,0,0-2.2-.1h-5.25V24H37.6a15.839,15.839,0,0,0,2.2-.1c4-.5,6.95-3.65,6.95-8.725C46.75,10.025,43.925,7.35,39.925,6.85Zm-.35,15.275a12.07,12.07,0,0,1-2.1.125h-2.85V8.5H37.6a12.07,12.07,0,0,1,2.1.125c2.925.475,4.7,2.725,4.7,6.55C44.4,19.25,42.5,21.65,39.575,22.125ZM62.425,6.4c-4.9,0-8.15,3.8-8.15,9.05,0,5.05,2.8,8.9,7.825,8.9,4.55,0,6.875-2.725,7.2-5.85l.025-.25h-2.15l-.05.25c-.5,2.475-2.025,4.15-4.9,4.15-3.4,0-5.55-3.05-5.55-7.3,0-4.175,2.175-7.25,5.7-7.25,2.875,0,4.4,1.675,4.9,4.15l.05.25h2.15l-.025-.25C69.1,8.875,66.8,6.4,62.425,6.4ZM79.9,6.4c-5.25,0-8.15,3.7-8.15,8.975,0,5.25,2.9,8.975,8.15,8.975s8.15-3.725,8.15-8.975C88.05,10.1,85.15,6.4,79.9,6.4Zm0,16.25c-3.625,0-5.75-2.8-5.75-7.275,0-4.5,2.125-7.275,5.75-7.275s5.75,2.775,5.75,7.275C85.65,19.85,83.525,22.65,79.9,22.65ZM105,24l-.05-17.25h-2.1v8.625c0,2.025.025,4.5.075,6.525L94.8,6.75H91.5V24h2.15V15.375c0-2.025-.025-4.5-.075-6.525L101.7,24ZM122.25,8.5V6.75H107.8V8.5h6.15V24h2.15V8.5Zm9.875,9.4,2.05,6.1H136.5L130.55,6.75h-2.9L121.45,24h2.3l2.025-6.1Zm-5.75-1.75,2.675-7.7,2.5,7.7Zm19.25-9.75c-4.9,0-8.15,3.8-8.15,9.05,0,5.05,2.8,8.9,7.825,8.9,4.55,0,6.875-2.725,7.2-5.85l.025-.25h-2.15l-.05.25c-.5,2.475-2.025,4.15-4.9,4.15-3.4,0-5.55-3.05-5.55-7.3,0-4.175,2.175-7.25,5.7-7.25,2.875,0,4.4,1.675,4.9,4.15l.05.25h2.15l-.025-.25C152.3,8.875,150,6.4,145.625,6.4ZM168.75,8.5V6.75H154.3V8.5h6.15V24h2.15V8.5Z" transform="translate(778.052 1755)" fill="#0097be"></path><path d="M4.625,22.25,8.95,17.975c2.925-2.875,4.2-4.475,4.2-6.825,0-2.575-1.725-4.75-5.25-4.75-3.45,0-5.6,1.9-5.95,5.5l-.025.25h2.15L4.1,11.9c.25-2.425,1.325-3.8,3.55-3.8a3.016,3.016,0,0,1,3.1,3.3c0,1.675-.975,2.925-3,5L1.5,22.775V24H13.075V22.25ZM30.5,24,30.45,6.75h-2.1v8.625c0,2.025.025,4.5.075,6.525L20.3,6.75H17V24h2.15V15.375c0-2.025-.025-4.5-.075-6.525L27.2,24ZM42.4,6.85a15.839,15.839,0,0,0-2.2-.1H34.95V24h5.125a15.839,15.839,0,0,0,2.2-.1c4-.5,6.95-3.65,6.95-8.725C49.225,10.025,46.4,7.35,42.4,6.85Zm-.35,15.275a12.07,12.07,0,0,1-2.1.125H37.1V8.5h2.975a12.07,12.07,0,0,1,2.1.125c2.925.475,4.7,2.725,4.7,6.55C46.875,19.25,44.975,21.65,42.05,22.125ZM64.9,6.4c-4.9,0-8.15,3.8-8.15,9.05,0,5.05,2.8,8.9,7.825,8.9,4.55,0,6.875-2.725,7.2-5.85l.025-.25H69.65l-.05.25c-.5,2.475-2.025,4.15-4.9,4.15-3.4,0-5.55-3.05-5.55-7.3,0-4.175,2.175-7.25,5.7-7.25,2.875,0,4.4,1.675,4.9,4.15l.05.25h2.15l-.025-.25C71.575,8.875,69.275,6.4,64.9,6.4Zm17.475,0c-5.25,0-8.15,3.7-8.15,8.975,0,5.25,2.9,8.975,8.15,8.975s8.15-3.725,8.15-8.975C90.525,10.1,87.625,6.4,82.375,6.4Zm0,16.25c-3.625,0-5.75-2.8-5.75-7.275,0-4.5,2.125-7.275,5.75-7.275s5.75,2.775,5.75,7.275C88.125,19.85,86,22.65,82.375,22.65Zm25.1,1.35-.05-17.25h-2.1v8.625c0,2.025.025,4.5.075,6.525L97.275,6.75h-3.3V24h2.15V15.375c0-2.025-.025-4.5-.075-6.525L104.175,24Zm17.25-15.5V6.75h-14.45V8.5h6.15V24h2.15V8.5Zm9.875,9.4,2.05,6.1h2.325l-5.95-17.25h-2.9L123.925,24h2.3l2.025-6.1Zm-5.75-1.75,2.675-7.7,2.5,7.7ZM148.1,6.4c-4.9,0-8.15,3.8-8.15,9.05,0,5.05,2.8,8.9,7.825,8.9,4.55,0,6.875-2.725,7.2-5.85l.025-.25h-2.15l-.05.25c-.5,2.475-2.025,4.15-4.9,4.15-3.4,0-5.55-3.05-5.55-7.3,0-4.175,2.175-7.25,5.7-7.25,2.875,0,4.4,1.675,4.9,4.15l.05.25h2.15l-.025-.25C154.775,8.875,152.475,6.4,148.1,6.4Zm23.125,2.1V6.75h-14.45V8.5h6.15V24h2.15V8.5Z" transform="translate(765.052 1885)" fill="#0097be"></path><path d="M10.15,6.75H8.775A3.347,3.347,0,0,0,6.9,7.3L3.25,9.575V11.85L8,9.025V24h2.15Zm12.2-.35c-3.175,0-5.75,1.875-5.75,4.85,0,2.85,2.125,4.075,5.175,4.775,3.025.7,4.225,1.65,4.225,3.75,0,1.8-1.6,2.875-3.575,2.875A4.175,4.175,0,0,1,18.1,19.1H15.8c.375,3.325,2.775,5.25,6.575,5.25,3.325,0,5.925-1.95,5.925-4.975,0-2.925-1.9-4.475-5.7-5.35-2.625-.6-3.7-1.4-3.7-3.275,0-1.8,1.45-2.65,3.275-2.65a3.394,3.394,0,0,1,3.65,3.425h2.3A5.366,5.366,0,0,0,22.35,6.4ZM44.425,8.5V6.75H29.975V8.5h6.15V24h2.15V8.5ZM59.15,6.4c-4.9,0-8.15,3.8-8.15,9.05,0,5.05,2.8,8.9,7.825,8.9,4.55,0,6.875-2.725,7.2-5.85l.025-.25H63.9l-.05.25c-.5,2.475-2.025,4.15-4.9,4.15-3.4,0-5.55-3.05-5.55-7.3,0-4.175,2.175-7.25,5.7-7.25,2.875,0,4.4,1.675,4.9,4.15l.05.25H66.2l-.025-.25C65.825,8.875,63.525,6.4,59.15,6.4Zm17.475,0c-5.25,0-8.15,3.7-8.15,8.975,0,5.25,2.9,8.975,8.15,8.975s8.15-3.725,8.15-8.975C84.775,10.1,81.875,6.4,76.625,6.4Zm0,16.25c-3.625,0-5.75-2.8-5.75-7.275,0-4.5,2.125-7.275,5.75-7.275s5.75,2.775,5.75,7.275C82.375,19.85,80.25,22.65,76.625,22.65Zm25.1,1.35-.05-17.25h-2.1v8.625c0,2.025.025,4.5.075,6.525L91.525,6.75h-3.3V24h2.15V15.375c0-2.025-.025-4.5-.075-6.525L98.425,24Zm17.25-15.5V6.75h-14.45V8.5h6.15V24h2.15V8.5Zm9.875,9.4L130.9,24h2.325l-5.95-17.25h-2.9L118.175,24h2.3l2.025-6.1Zm-5.75-1.75,2.675-7.7,2.5,7.7ZM142.35,6.4c-4.9,0-8.15,3.8-8.15,9.05,0,5.05,2.8,8.9,7.825,8.9,4.55,0,6.875-2.725,7.2-5.85l.025-.25H147.1l-.05.25c-.5,2.475-2.025,4.15-4.9,4.15-3.4,0-5.55-3.05-5.55-7.3,0-4.175,2.175-7.25,5.7-7.25,2.875,0,4.4,1.675,4.9,4.15l.05.25h2.15l-.025-.25C149.025,8.875,146.725,6.4,142.35,6.4Zm23.125,2.1V6.75h-14.45V8.5h6.15V24h2.15V8.5Z" transform="translate(759.052 2018)" fill="#004050"></path><g transform="translate(1222.052 1681)" fill="none" stroke="#02cafc" stroke-width="5"><rect width="318" height="104" rx="15" stroke="none"></rect><rect x="2.5" y="2.5" width="313" height="99" rx="12.5" fill="none"></rect></g><g transform="translate(1221.052 1816)" fill="none" stroke="#0097be" stroke-width="5"><rect width="318" height="104" rx="15" stroke="none"></rect><rect x="2.5" y="2.5" width="313" height="99" rx="12.5" fill="none"></rect></g><g transform="translate(1221.052 1950)" fill="none" stroke="#004050" stroke-width="5"><rect width="318" height="104" rx="15" stroke="none"></rect><rect x="2.5" y="2.5" width="313" height="99" rx="12.5" fill="none"></rect></g><path d="M5.595,4.44C2.445,4.44.7,6.66.7,9.825s1.74,5.385,4.89,5.385,4.89-2.235,4.89-5.385S8.745,4.44,5.595,4.44Zm0,9.75c-2.175,0-3.45-1.68-3.45-4.365S3.42,5.46,5.595,5.46s3.45,1.665,3.45,4.365S7.77,14.19,5.595,14.19Zm13.26-5.025A2.514,2.514,0,0,0,16.02,6.84a3.009,3.009,0,0,0-2.07.66l-.5.915V7.05h-1.29V15h1.29V11.505c0-2.715,1.05-3.645,2.3-3.645a1.618,1.618,0,0,1,1.815,1.62c.03.405.03.735.03,1.14V15h1.29V10.53C18.885,9.885,18.885,9.57,18.855,9.165Zm3.435-5.19H21v8.79c0,.435,0,.78.015,1.05.045,1.005.6,1.245,1.35,1.245A6.116,6.116,0,0,0,23.28,15v-.93c-.7.075-.945-.09-.975-.6-.015-.255-.015-.51-.015-.75ZM31.26,7.05H29.85L27.5,14.04l-2.37-6.99H23.67L26.835,15.4l-.1.285c-.405,1.05-.93,1.395-1.725,1.395-.135,0-.27,0-.465-.015v1.05a4.236,4.236,0,0,0,.66.03c1.29,0,2.145-.8,2.79-2.475Zm9.39,2.475A2.426,2.426,0,0,0,42.36,7.23c0-1.71-1.305-2.79-3.33-2.79S35.7,5.52,35.7,7.23a2.421,2.421,0,0,0,1.6,2.31A2.788,2.788,0,0,0,35.25,12.1c0,2.265,1.725,3.12,3.69,3.12,1.815,0,3.69-.855,3.69-3.12A2.75,2.75,0,0,0,40.65,9.525ZM39.03,5.46a1.75,1.75,0,0,1,1.935,1.815,1.762,1.762,0,0,1-1.95,1.845A1.738,1.738,0,0,1,37.1,7.275,1.75,1.75,0,0,1,39.03,5.46ZM38.97,14.2a2,2,0,0,1-2.28-2.04,1.985,1.985,0,0,1,2.265-2.025,1.96,1.96,0,0,1,2.235,2.025A1.946,1.946,0,0,1,38.97,14.2Zm7.155-9.7a2.15,2.15,0,0,0-2.22,2.385,2.226,2.226,0,1,0,4.44,0A2.15,2.15,0,0,0,46.125,4.5ZM46.14,15,52.86,4.65H51.555L44.835,15Zm-.015-9.6c.57,0,.96.51.96,1.485,0,.96-.39,1.485-.96,1.485s-.96-.525-.96-1.485C45.165,5.91,45.555,5.4,46.125,5.4Zm5.43,5.04a2.15,2.15,0,0,0-2.22,2.385,2.226,2.226,0,1,0,4.44,0A2.15,2.15,0,0,0,51.555,10.44Zm0,.9c.57,0,.96.51.96,1.485s-.39,1.485-.96,1.485-.96-.525-.96-1.485S50.985,11.34,51.555,11.34Zm10.47-4.5c-2.7,0-3.945,1.935-3.945,4.185s1.245,4.185,3.945,4.185,3.945-1.95,3.945-4.185S64.725,6.84,62.025,6.84Zm0,7.38c-1.6,0-2.535-1.335-2.535-3.2s.93-3.195,2.535-3.195,2.535,1.32,2.535,3.195S63.63,14.22,62.025,14.22Zm6.9-8.7c.105-.645.75-.87,1.725-.69V3.765a5.645,5.645,0,0,0-.915-.075,1.927,1.927,0,0,0-2.1,1.8c-.03.27-.045.66-.045.96v.66h-.855V8.1h.855V15h1.29V8.1h1.635V7.11H68.88V6.33A7.131,7.131,0,0,1,68.925,5.52ZM77.43,6.84c-1.635,0-2.745.87-2.745,2.325,0,1.395,1.14,1.98,2.565,2.37,1.335.36,1.875.765,1.875,1.53s-.69,1.155-1.545,1.155a1.715,1.715,0,0,1-1.86-1.56H74.37a2.8,2.8,0,0,0,3.12,2.55c1.68,0,2.955-.75,2.955-2.25,0-1.35-.87-2.07-2.7-2.55-1.08-.285-1.74-.6-1.74-1.395,0-.69.42-1.185,1.32-1.185a1.628,1.628,0,0,1,1.68,1.485h1.35A2.668,2.668,0,0,0,77.43,6.84ZM86.565,15h1.29a13.793,13.793,0,0,1-.15-2.025V9.99c0-.345-.015-.735-.045-1.05-.135-1.3-.93-2.1-2.82-2.1a2.778,2.778,0,0,0-3.06,2.67h1.35c.09-1.1.63-1.68,1.71-1.68s1.485.48,1.545,1.215c.03.3.03.615.03.96v.21H85.9c-3.12,0-4.47.93-4.47,2.73A2.284,2.284,0,0,0,84,15.21a3.439,3.439,0,0,0,1.995-.495l.435-.855Zm-2.13-.78c-.975,0-1.59-.42-1.59-1.38,0-1.365,1.38-1.83,3.57-1.665v.81C86.415,13.425,85.635,14.22,84.435,14.22ZM91.2,3.975H89.91v8.79c0,.435,0,.78.015,1.05.045,1.005.6,1.245,1.35,1.245A6.116,6.116,0,0,0,92.19,15v-.93c-.705.075-.945-.09-.975-.6-.015-.255-.015-.51-.015-.75Zm9,6.825c0-2.325-1.215-3.96-3.4-3.96s-3.78,1.635-3.78,4.215c0,2.8,1.545,4.155,3.615,4.155a3.261,3.261,0,0,0,3.465-2.775h-1.35A2,2,0,0,1,96.69,14.22c-1.17,0-2.16-.7-2.28-2.805h5.76A5.532,5.532,0,0,0,100.2,10.8ZM96.765,7.83c1.305,0,2.01.945,2.13,2.595h-4.47C94.575,8.73,95.505,7.83,96.765,7.83Zm7.455-.99c-1.635,0-2.745.87-2.745,2.325,0,1.395,1.14,1.98,2.565,2.37,1.335.36,1.875.765,1.875,1.53s-.69,1.155-1.545,1.155a1.715,1.715,0,0,1-1.86-1.56h-1.35a2.8,2.8,0,0,0,3.12,2.55c1.68,0,2.955-.75,2.955-2.25,0-1.35-.87-2.07-2.7-2.55-1.08-.285-1.74-.6-1.74-1.395,0-.69.42-1.185,1.32-1.185a1.628,1.628,0,0,1,1.68,1.485h1.35A2.668,2.668,0,0,0,104.22,6.84Zm10.935.03a2.034,2.034,0,0,0-1.11.36l-.72,1.065V7.05h-1.29V15h1.29V10.47c0-1.815,1.02-2.61,2.37-2.52V6.975A1.2,1.2,0,0,0,115.155,6.87Zm8.175,3.93c0-2.325-1.215-3.96-3.4-3.96s-3.78,1.635-3.78,4.215c0,2.8,1.545,4.155,3.615,4.155a3.261,3.261,0,0,0,3.465-2.775h-1.35a2,2,0,0,1-2.055,1.785c-1.17,0-2.16-.7-2.28-2.805h5.76A5.532,5.532,0,0,0,123.33,10.8Zm-3.435-2.97c1.305,0,2.01.945,2.13,2.595h-4.47C117.705,8.73,118.635,7.83,119.895,7.83Zm9.135-.99a3.529,3.529,0,0,0-2.1.63l-.6.855V7.05h-1.29V17.94h1.29V13.9l.525.78a3.434,3.434,0,0,0,1.9.525c2.055,0,3.885-1.365,3.885-4.305C132.645,8.58,131.355,6.84,129.03,6.84Zm-.27,7.38c-1.14,0-2.43-.78-2.43-2.835V10.95c0-2.28,1.185-3.12,2.505-3.12,1.59,0,2.4,1.425,2.4,3.225C131.235,13.14,130.155,14.22,128.76,14.22Zm7.755-7.38c-1.635,0-2.745.87-2.745,2.325,0,1.395,1.14,1.98,2.565,2.37,1.335.36,1.875.765,1.875,1.53s-.69,1.155-1.545,1.155a1.715,1.715,0,0,1-1.86-1.56h-1.35a2.8,2.8,0,0,0,3.12,2.55c1.68,0,2.955-.75,2.955-2.25,0-1.35-.87-2.07-2.7-2.55-1.08-.285-1.74-.6-1.74-1.395,0-.69.42-1.185,1.32-1.185a1.628,1.628,0,0,1,1.68,1.485h1.35A2.668,2.668,0,0,0,136.515,6.84ZM2.5,26.52c.105-.645.75-.87,1.725-.69V24.765a5.645,5.645,0,0,0-.915-.075,1.927,1.927,0,0,0-2.1,1.8c-.03.27-.045.66-.045.96v.66H.315v.99H1.17V36H2.46V29.1H4.1v-.99H2.46v-.78A7.131,7.131,0,0,1,2.5,26.52Zm6.24,1.32c-2.7,0-3.945,1.935-3.945,4.185,0,2.235,1.245,4.185,3.945,4.185s3.945-1.95,3.945-4.185C12.69,29.775,11.445,27.84,8.745,27.84Zm0,7.38c-1.605,0-2.535-1.335-2.535-3.195,0-1.875.93-3.2,2.535-3.2s2.535,1.32,2.535,3.2C11.28,33.885,10.35,35.22,8.745,35.22ZM15.48,24.975H14.19v8.79c0,.435,0,.78.015,1.05.045,1.005.6,1.245,1.35,1.245A6.116,6.116,0,0,0,16.47,36v-.93c-.705.075-.945-.09-.975-.6-.015-.255-.015-.51-.015-.75Zm3.7,0h-1.29v8.79c0,.435,0,.78.015,1.05.045,1.005.6,1.245,1.35,1.245a6.116,6.116,0,0,0,.915-.06v-.93c-.7.075-.945-.09-.975-.6-.015-.255-.015-.51-.015-.75Zm5.76,2.865c-2.7,0-3.945,1.935-3.945,4.185,0,2.235,1.245,4.185,3.945,4.185s3.945-1.95,3.945-4.185C28.89,29.775,27.645,27.84,24.945,27.84Zm0,7.38c-1.6,0-2.535-1.335-2.535-3.195,0-1.875.93-3.2,2.535-3.2s2.535,1.32,2.535,3.2C27.48,33.885,26.55,35.22,24.945,35.22Zm16.08-7.17h-1.38L37.8,34.725,36.03,28.05h-1.6l-1.74,6.72L30.84,28.05H29.355L31.89,36h1.53l1.77-6.69L36.96,36h1.53Zm11.04,0h-1.29v3.5c0,2.715-.99,3.645-2.235,3.645a1.7,1.7,0,0,1-1.845-1.515,10.8,10.8,0,0,1-.06-1.095V28.05h-1.29v4.77a8.4,8.4,0,0,0,.075,1.365,2.568,2.568,0,0,0,2.79,2.025,3.139,3.139,0,0,0,2.07-.63l.5-.93V36h1.29Zm6.27-.21a3.529,3.529,0,0,0-2.1.63l-.6.855V28.05h-1.29V38.94h1.29V34.9l.525.78a3.434,3.434,0,0,0,1.905.525c2.055,0,3.885-1.365,3.885-4.305C61.95,29.58,60.66,27.84,58.335,27.84Zm-.27,7.38c-1.14,0-2.43-.78-2.43-2.835V31.95c0-2.28,1.185-3.12,2.5-3.12,1.59,0,2.4,1.425,2.4,3.225C60.54,34.14,59.46,35.22,58.065,35.22Zm19.26-5.445A2.254,2.254,0,0,0,74.91,27.84a2.6,2.6,0,0,0-1.68.465l-.7,1.02a2.249,2.249,0,0,0-2.3-1.485,2.6,2.6,0,0,0-1.68.465l-.51.9V28.05H66.75V36h1.29V32.07c0-2.415.735-3.21,1.74-3.21a1.43,1.43,0,0,1,1.59,1.335,13.8,13.8,0,0,1,.06,1.545V36h1.29V32.07c0-2.415.735-3.21,1.74-3.21a1.43,1.43,0,0,1,1.59,1.335,13.8,13.8,0,0,1,.06,1.545V36H77.4V31.14A8.4,8.4,0,0,0,77.325,29.775ZM82.86,27.84c-2.7,0-3.945,1.935-3.945,4.185,0,2.235,1.245,4.185,3.945,4.185S86.8,34.26,86.8,32.025C86.8,29.775,85.56,27.84,82.86,27.84Zm0,7.38c-1.6,0-2.535-1.335-2.535-3.195,0-1.875.93-3.2,2.535-3.2s2.535,1.32,2.535,3.2C85.395,33.885,84.465,35.22,82.86,35.22Zm8.625-7.35a2.034,2.034,0,0,0-1.11.36l-.72,1.065V28.05h-1.29V36h1.29V31.47c0-1.815,1.02-2.61,2.37-2.52v-.975A1.2,1.2,0,0,0,91.485,27.87ZM99.66,31.8c0-2.325-1.215-3.96-3.4-3.96s-3.78,1.635-3.78,4.215c0,2.805,1.545,4.155,3.615,4.155a3.261,3.261,0,0,0,3.465-2.775h-1.35A2,2,0,0,1,96.15,35.22c-1.17,0-2.16-.705-2.28-2.805h5.76A5.532,5.532,0,0,0,99.66,31.8Zm-3.435-2.97c1.305,0,2.01.945,2.13,2.595h-4.47C94.035,29.73,94.965,28.83,96.225,28.83Zm9.93.27h1.485v-.99h-1.485V26.265h-1.29V28.11H103.8v.99h1.065v4.635c0,.45,0,.78.015.99.075.99.585,1.4,1.575,1.4a6.835,6.835,0,0,0,1.1-.075V35.1c-1.005.12-1.32-.045-1.38-.81-.015-.21-.015-.345-.015-.615ZM116,30.165a2.514,2.514,0,0,0-2.835-2.325,3.009,3.009,0,0,0-2.07.66l-.495.915V24.9h-1.29V36h1.29V32.505c0-2.715,1.05-3.615,2.295-3.645a1.6,1.6,0,0,1,1.815,1.62c.03.405.03.735.03,1.14V36h1.29V31.53C116.025,30.885,116.025,30.57,116,30.165ZM122.76,36h1.29a13.791,13.791,0,0,1-.15-2.025V30.99c0-.345-.015-.735-.045-1.05-.135-1.3-.93-2.1-2.82-2.1a2.778,2.778,0,0,0-3.06,2.67h1.35c.09-1.095.63-1.68,1.71-1.68s1.485.48,1.545,1.215c.03.3.03.615.03.96v.21h-.51c-3.12,0-4.47.93-4.47,2.73a2.284,2.284,0,0,0,2.565,2.265,3.439,3.439,0,0,0,1.995-.495l.435-.855Zm-2.13-.78c-.975,0-1.59-.42-1.59-1.38,0-1.365,1.38-1.83,3.57-1.665v.81C122.61,34.425,121.83,35.22,120.63,35.22Zm12.225-5.055a2.514,2.514,0,0,0-2.835-2.325,3.009,3.009,0,0,0-2.07.66l-.495.915V28.05h-1.29V36h1.29V32.505c0-2.715,1.05-3.645,2.295-3.645a1.618,1.618,0,0,1,1.815,1.62c.03.405.03.735.03,1.14V36h1.29V31.53C132.885,30.885,132.885,30.57,132.855,30.165ZM4.605,50.175a3,3,0,0,0-1.635.435l-.645.69.465-3.6H7.62V46.65H1.74l-.72,6.015H2.25a2.213,2.213,0,0,1,2.16-1.47c1.38,0,2.205.975,2.205,2.535A2.192,2.192,0,0,1,4.35,56.19a2.081,2.081,0,0,1-2.175-1.935l-.03-.15H.855l.015.15c.2,1.95,1.41,2.955,3.5,2.955a3.511,3.511,0,0,0,3.69-3.57A3.2,3.2,0,0,0,4.605,50.175Zm9.99-.075H16.08v-.99H14.595V47.265H13.3V49.11H12.24v.99H13.3v4.635c0,.45,0,.78.015.99.075.99.585,1.4,1.575,1.4a6.835,6.835,0,0,0,1.1-.075V56.1c-1.005.12-1.32-.045-1.38-.81-.015-.21-.015-.345-.015-.615Zm3.8-3.66a.825.825,0,1,0,.825.825A.813.813,0,0,0,18.39,46.44ZM19.035,57V49.05h-1.29V57ZM31.89,50.775a2.254,2.254,0,0,0-2.415-1.935,2.6,2.6,0,0,0-1.68.465l-.7,1.02a2.249,2.249,0,0,0-2.3-1.485,2.6,2.6,0,0,0-1.68.465l-.51.9V49.05h-1.29V57H22.6V53.07c0-2.415.735-3.21,1.74-3.21a1.43,1.43,0,0,1,1.59,1.335,13.794,13.794,0,0,1,.06,1.545V57h1.29V53.07c0-2.415.735-3.21,1.74-3.21a1.43,1.43,0,0,1,1.59,1.335,13.794,13.794,0,0,1,.06,1.545V57h1.29V52.14A8.4,8.4,0,0,0,31.89,50.775ZM40.665,52.8c0-2.325-1.215-3.96-3.405-3.96s-3.78,1.635-3.78,4.215c0,2.805,1.545,4.155,3.615,4.155a3.261,3.261,0,0,0,3.465-2.775H39.21a2,2,0,0,1-2.055,1.785c-1.17,0-2.16-.705-2.28-2.805h5.76A5.532,5.532,0,0,0,40.665,52.8ZM37.23,49.83c1.305,0,2.01.945,2.13,2.595H34.89C35.04,50.73,35.97,49.83,37.23,49.83Zm7.455-.99c-1.635,0-2.745.87-2.745,2.325,0,1.4,1.14,1.98,2.565,2.37,1.335.36,1.875.765,1.875,1.53s-.69,1.155-1.545,1.155a1.715,1.715,0,0,1-1.86-1.56h-1.35a2.8,2.8,0,0,0,3.12,2.55c1.68,0,2.955-.75,2.955-2.25,0-1.35-.87-2.07-2.7-2.55-1.08-.285-1.74-.6-1.74-1.4,0-.69.42-1.185,1.32-1.185a1.628,1.628,0,0,1,1.68,1.485h1.35A2.668,2.668,0,0,0,44.685,48.84Z" transform="translate(1366.052 1703)" fill="#505050"></path><path d="M5.595,4.44C2.445,4.44.7,6.66.7,9.825s1.74,5.385,4.89,5.385,4.89-2.235,4.89-5.385S8.745,4.44,5.595,4.44Zm0,9.75c-2.175,0-3.45-1.68-3.45-4.365S3.42,5.46,5.595,5.46s3.45,1.665,3.45,4.365S7.77,14.19,5.595,14.19ZM13.56,5.52c.1-.645.75-.87,1.725-.69V3.765a5.645,5.645,0,0,0-.915-.075,1.927,1.927,0,0,0-2.1,1.8c-.03.27-.045.66-.045.96v.66H11.37V8.1h.855V15h1.29V8.1H15.15V7.11H13.515V6.33A7.131,7.131,0,0,1,13.56,5.52Zm8.505,1.32c-1.635,0-2.745.87-2.745,2.325,0,1.395,1.14,1.98,2.565,2.37,1.335.36,1.875.765,1.875,1.53s-.69,1.155-1.545,1.155a1.715,1.715,0,0,1-1.86-1.56h-1.35a2.8,2.8,0,0,0,3.12,2.55c1.68,0,2.955-.75,2.955-2.25,0-1.35-.87-2.07-2.7-2.55-1.08-.285-1.74-.6-1.74-1.395,0-.69.42-1.185,1.32-1.185a1.628,1.628,0,0,1,1.68,1.485h1.35A2.668,2.668,0,0,0,22.065,6.84ZM31.2,15h1.29a13.792,13.792,0,0,1-.15-2.025V9.99c0-.345-.015-.735-.045-1.05-.135-1.3-.93-2.1-2.82-2.1a2.778,2.778,0,0,0-3.06,2.67h1.35c.09-1.1.63-1.68,1.71-1.68s1.485.48,1.545,1.215c.03.3.03.615.03.96v.21h-.51c-3.12,0-4.47.93-4.47,2.73a2.284,2.284,0,0,0,2.565,2.265,3.439,3.439,0,0,0,2-.495l.435-.855Zm-2.13-.78c-.975,0-1.59-.42-1.59-1.38,0-1.365,1.38-1.83,3.57-1.665v.81C31.05,13.425,30.27,14.22,29.07,14.22ZM35.835,3.975h-1.29v8.79c0,.435,0,.78.015,1.05.045,1.005.6,1.245,1.35,1.245a6.116,6.116,0,0,0,.915-.06v-.93c-.7.075-.945-.09-.975-.6-.015-.255-.015-.51-.015-.75Zm9,6.825c0-2.325-1.215-3.96-3.4-3.96-2.175,0-3.78,1.635-3.78,4.215,0,2.8,1.545,4.155,3.615,4.155a3.261,3.261,0,0,0,3.465-2.775H43.38a2,2,0,0,1-2.055,1.785c-1.17,0-2.16-.7-2.28-2.805h5.76A5.532,5.532,0,0,0,44.835,10.8ZM41.4,7.83c1.305,0,2.01.945,2.13,2.595H39.06C39.21,8.73,40.14,7.83,41.4,7.83Zm7.455-.99c-1.635,0-2.745.87-2.745,2.325,0,1.395,1.14,1.98,2.565,2.37,1.335.36,1.875.765,1.875,1.53s-.69,1.155-1.545,1.155a1.715,1.715,0,0,1-1.86-1.56H45.8a2.8,2.8,0,0,0,3.12,2.55c1.68,0,2.955-.75,2.955-2.25,0-1.35-.87-2.07-2.7-2.55-1.08-.285-1.74-.6-1.74-1.395,0-.69.42-1.185,1.32-1.185a1.628,1.628,0,0,1,1.68,1.485h1.35A2.668,2.668,0,0,0,48.855,6.84Zm10.935.03a2.034,2.034,0,0,0-1.11.36L57.96,8.3V7.05H56.67V15h1.29V10.47c0-1.815,1.02-2.61,2.37-2.52V6.975A1.2,1.2,0,0,0,59.79,6.87Zm8.175,3.93c0-2.325-1.215-3.96-3.4-3.96s-3.78,1.635-3.78,4.215c0,2.8,1.545,4.155,3.615,4.155a3.261,3.261,0,0,0,3.465-2.775H66.51a2,2,0,0,1-2.055,1.785c-1.17,0-2.16-.7-2.28-2.805h5.76A5.532,5.532,0,0,0,67.965,10.8ZM64.53,7.83c1.305,0,2.01.945,2.13,2.595H62.19C62.34,8.73,63.27,7.83,64.53,7.83Zm9.135-.99a3.529,3.529,0,0,0-2.1.63l-.6.855V7.05h-1.29V17.94h1.29V13.9l.525.78a3.434,3.434,0,0,0,1.9.525c2.055,0,3.885-1.365,3.885-4.305C77.28,8.58,75.99,6.84,73.665,6.84Zm-.27,7.38c-1.14,0-2.43-.78-2.43-2.835V10.95c0-2.28,1.185-3.12,2.5-3.12,1.59,0,2.4,1.425,2.4,3.225C75.87,13.14,74.79,14.22,73.4,14.22ZM81.15,6.84c-1.635,0-2.745.87-2.745,2.325,0,1.395,1.14,1.98,2.565,2.37,1.335.36,1.875.765,1.875,1.53s-.69,1.155-1.545,1.155a1.715,1.715,0,0,1-1.86-1.56H78.09a2.8,2.8,0,0,0,3.12,2.55c1.68,0,2.955-.75,2.955-2.25,0-1.35-.87-2.07-2.7-2.55-1.08-.285-1.74-.6-1.74-1.395,0-.69.42-1.185,1.32-1.185a1.628,1.628,0,0,1,1.68,1.485h1.35A2.668,2.668,0,0,0,81.15,6.84Zm14.76.21H94.62v1.1l-.525-.78a3.434,3.434,0,0,0-1.9-.525c-2.055,0-3.885,1.365-3.885,4.305,0,2.325,1.29,4.065,3.615,4.065a3.529,3.529,0,0,0,2.1-.63l.6-.855v.135c0,.24,0,.495-.015.87a2.278,2.278,0,0,1-2.49,2.43c-1.365,0-2.145-.675-2.25-1.65l-.015-.135H88.545l.015.15c.165,1.68,1.29,2.625,3.555,2.625,2.295,0,3.705-1.23,3.78-3.555.015-.435.015-1.05.015-1.545Zm-3.795,7.17c-1.59,0-2.4-1.425-2.4-3.225,0-2.085,1.08-3.165,2.475-3.165,1.14,0,2.43.78,2.43,2.835V11.1C94.62,13.38,93.435,14.22,92.115,14.22Zm6.72-9.78a.825.825,0,1,0,.825.825A.813.813,0,0,0,98.835,4.44ZM99.48,15V7.05H98.19V15Zm8.79-7.95H106.9l-2.385,7.005L102.09,7.05h-1.425L103.68,15h1.575Zm7.6,3.75c0-2.325-1.215-3.96-3.4-3.96s-3.78,1.635-3.78,4.215c0,2.8,1.545,4.155,3.615,4.155a3.261,3.261,0,0,0,3.465-2.775h-1.35a2,2,0,0,1-2.055,1.785c-1.17,0-2.16-.7-2.28-2.805h5.76A5.532,5.532,0,0,0,115.875,10.8ZM112.44,7.83c1.305,0,2.01.945,2.13,2.595H110.1C110.25,8.73,111.18,7.83,112.44,7.83Zm14.985-.78h-1.29v3.495c0,2.715-.99,3.645-2.235,3.645a1.7,1.7,0,0,1-1.845-1.515,10.8,10.8,0,0,1-.06-1.1V7.05H120.7v4.77a8.4,8.4,0,0,0,.075,1.365,2.568,2.568,0,0,0,2.79,2.025,3.139,3.139,0,0,0,2.07-.63l.495-.93V15h1.29Zm6.27-.21a3.529,3.529,0,0,0-2.1.63l-.6.855V7.05h-1.29V17.94h1.29V13.9l.525.78a3.434,3.434,0,0,0,1.9.525c2.055,0,3.885-1.365,3.885-4.305C137.31,8.58,136.02,6.84,133.7,6.84Zm-.27,7.38c-1.14,0-2.43-.78-2.43-2.835V10.95c0-2.28,1.185-3.12,2.505-3.12,1.59,0,2.4,1.425,2.4,3.225C135.9,13.14,134.82,14.22,133.425,14.22ZM5.1,27.84a3.529,3.529,0,0,0-2.1.63l-.6.855v-4.35H1.11V36H2.4V34.9l.525.78a3.434,3.434,0,0,0,1.9.525c2.055,0,3.885-1.365,3.885-4.305C8.715,29.58,7.425,27.84,5.1,27.84Zm-.27,7.38c-1.14,0-2.43-.78-2.43-2.835V31.95c0-2.28,1.185-3.12,2.5-3.12,1.59,0,2.4,1.425,2.4,3.225C7.3,34.14,6.225,35.22,4.83,35.22ZM16.8,31.8c0-2.325-1.215-3.96-3.4-3.96s-3.78,1.635-3.78,4.215c0,2.805,1.545,4.155,3.615,4.155a3.261,3.261,0,0,0,3.465-2.775h-1.35A2,2,0,0,1,13.29,35.22c-1.17,0-2.16-.705-2.28-2.805h5.76A5.532,5.532,0,0,0,16.8,31.8Zm-3.435-2.97c1.305,0,2.01.945,2.13,2.595h-4.47C11.175,29.73,12.1,28.83,13.365,28.83Zm6.69.27H21.54v-.99H20.055V26.265h-1.29V28.11H17.7v.99h1.065v4.635c0,.45,0,.78.015.99.075.99.585,1.4,1.575,1.4a6.835,6.835,0,0,0,1.1-.075V35.1c-1.005.12-1.32-.045-1.38-.81-.015-.21-.015-.345-.015-.615ZM33.78,28.05H32.4l-1.845,6.675-1.77-6.675h-1.6l-1.74,6.72-1.845-6.72H22.11L24.645,36h1.53l1.77-6.69L29.715,36h1.53ZM41.5,31.8c0-2.325-1.215-3.96-3.4-3.96-2.175,0-3.78,1.635-3.78,4.215,0,2.805,1.545,4.155,3.615,4.155A3.261,3.261,0,0,0,41.4,33.435H40.05a2,2,0,0,1-2.055,1.785c-1.17,0-2.16-.705-2.28-2.805h5.76A5.532,5.532,0,0,0,41.5,31.8ZM38.07,28.83c1.305,0,2.01.945,2.13,2.595H35.73C35.88,29.73,36.81,28.83,38.07,28.83ZM49.74,31.8c0-2.325-1.215-3.96-3.4-3.96-2.175,0-3.78,1.635-3.78,4.215,0,2.805,1.545,4.155,3.615,4.155a3.261,3.261,0,0,0,3.465-2.775h-1.35A2,2,0,0,1,46.23,35.22c-1.17,0-2.16-.705-2.28-2.805h5.76A5.532,5.532,0,0,0,49.74,31.8Zm-3.435-2.97c1.305,0,2.01.945,2.13,2.595h-4.47C44.115,29.73,45.045,28.83,46.305,28.83ZM58.14,30.165a2.514,2.514,0,0,0-2.835-2.325,3.009,3.009,0,0,0-2.07.66l-.495.915V28.05H51.45V36h1.29V32.505c0-2.715,1.05-3.645,2.295-3.645a1.618,1.618,0,0,1,1.815,1.62c.03.405.03.735.03,1.14V36h1.29V31.53C58.17,30.885,58.17,30.57,58.14,30.165Zm7.11,4.785,2.6-2.565c1.755-1.725,2.52-2.685,2.52-4.095a2.813,2.813,0,0,0-3.15-2.85,3.3,3.3,0,0,0-3.57,3.3l-.015.15h1.29l.015-.15c.15-1.455.795-2.28,2.13-2.28a1.81,1.81,0,0,1,1.86,1.98c0,1-.585,1.755-1.8,3l-3.75,3.825V36H70.32V34.95Zm18.5-4.725h-1.44v-1.68h-1.29v1.68h-.9c-.33,0-.66,0-.93-.015-1.11-.06-1.95-.465-1.95-1.875,0-1.155.81-1.875,2.175-1.875a8.791,8.791,0,0,1,1.845.165V25.59a9.174,9.174,0,0,0-1.8-.15c-2.145,0-3.66,1.2-3.66,2.97a2.335,2.335,0,0,0,1.95,2.31,2.8,2.8,0,0,0-2.37,2.685c0,2.19,1.68,2.805,4.1,2.805a12.917,12.917,0,0,0,2.835-.315v-4.62h1.44Zm-6.93,2.985c0-.96.66-1.755,2.385-1.9a9.022,9.022,0,0,1,.915-.03h.9v3.78a6.861,6.861,0,0,1-1.515.135C77.625,35.19,76.815,34.65,76.815,33.21ZM92.07,29.175a3,3,0,0,0-1.635.435l-.645.69.465-3.6h4.83V25.65H89.2l-.72,6.015h1.23a2.213,2.213,0,0,1,2.16-1.47c1.38,0,2.2.975,2.2,2.535a2.192,2.192,0,0,1-2.265,2.46,2.081,2.081,0,0,1-2.175-1.935l-.03-.15H88.32l.015.15c.195,1.95,1.41,2.955,3.495,2.955a3.511,3.511,0,0,0,3.69-3.57A3.2,3.2,0,0,0,92.07,29.175ZM5.67,57H6.96a13.792,13.792,0,0,1-.15-2.025V51.99c0-.345-.015-.735-.045-1.05-.135-1.3-.93-2.1-2.82-2.1a2.778,2.778,0,0,0-3.06,2.67h1.35c.09-1.1.63-1.68,1.71-1.68,1.065,0,1.485.48,1.545,1.215.03.3.03.615.03.96v.21H5.01c-3.12,0-4.47.93-4.47,2.73A2.284,2.284,0,0,0,3.105,57.21,3.439,3.439,0,0,0,5.1,56.715l.435-.855Zm-2.13-.78c-.975,0-1.59-.42-1.59-1.38,0-1.365,1.38-1.83,3.57-1.665v.81C5.52,55.425,4.74,56.22,3.54,56.22Zm7.08-6.12H12.1v-.99H10.62V47.265H9.33V49.11H8.265v.99H9.33v4.635c0,.45,0,.78.015.99.075.99.585,1.4,1.575,1.4a6.835,6.835,0,0,0,1.1-.075V56.1c-1.005.12-1.32-.045-1.38-.81-.015-.21-.015-.345-.015-.615Zm4.695,0H16.8v-.99H15.315V47.265h-1.29V49.11H12.96v.99h1.065v4.635c0,.45,0,.78.015.99.075.99.585,1.4,1.575,1.4a6.835,6.835,0,0,0,1.095-.075V56.1c-1,.12-1.32-.045-1.38-.81-.015-.21-.015-.345-.015-.615Zm9.48,2.7c0-2.325-1.215-3.96-3.405-3.96-2.175,0-3.78,1.635-3.78,4.215,0,2.805,1.545,4.155,3.615,4.155a3.261,3.261,0,0,0,3.465-2.775H23.34a2,2,0,0,1-2.055,1.785c-1.17,0-2.16-.705-2.28-2.805h5.76A5.532,5.532,0,0,0,24.8,52.8ZM21.36,49.83c1.305,0,2.01.945,2.13,2.595H19.02C19.17,50.73,20.1,49.83,21.36,49.83Zm15.72.945a2.254,2.254,0,0,0-2.415-1.935,2.6,2.6,0,0,0-1.68.465l-.705,1.02a2.249,2.249,0,0,0-2.295-1.485,2.6,2.6,0,0,0-1.68.465l-.51.9V49.05h-1.29V57H27.8V53.07c0-2.415.735-3.21,1.74-3.21a1.43,1.43,0,0,1,1.59,1.335,13.794,13.794,0,0,1,.06,1.545V57h1.29V53.07c0-2.415.735-3.21,1.74-3.21a1.43,1.43,0,0,1,1.59,1.335,13.794,13.794,0,0,1,.06,1.545V57h1.29V52.14A8.4,8.4,0,0,0,37.08,50.775Zm6.24-1.935a3.529,3.529,0,0,0-2.1.63l-.6.855V49.05H39.33V59.94h1.29V55.9l.525.78a3.434,3.434,0,0,0,1.905.525c2.055,0,3.885-1.365,3.885-4.305C46.935,50.58,45.645,48.84,43.32,48.84Zm-.27,7.38c-1.14,0-2.43-.78-2.43-2.835V52.95c0-2.28,1.185-3.12,2.5-3.12,1.59,0,2.4,1.425,2.4,3.225C45.525,55.14,44.445,56.22,43.05,56.22Zm6.99-6.12h1.485v-.99H50.04V47.265H48.75V49.11H47.685v.99H48.75v4.635c0,.45,0,.78.015.99.075.99.585,1.4,1.575,1.4a6.835,6.835,0,0,0,1.1-.075V56.1c-1.005.12-1.32-.045-1.38-.81-.015-.21-.015-.345-.015-.615Zm5.46-1.26c-1.635,0-2.745.87-2.745,2.325,0,1.4,1.14,1.98,2.565,2.37,1.335.36,1.875.765,1.875,1.53s-.69,1.155-1.545,1.155a1.715,1.715,0,0,1-1.86-1.56H52.44a2.8,2.8,0,0,0,3.12,2.55c1.68,0,2.955-.75,2.955-2.25,0-1.35-.87-2.07-2.7-2.55-1.08-.285-1.74-.6-1.74-1.4,0-.69.42-1.185,1.32-1.185a1.628,1.628,0,0,1,1.68,1.485h1.35A2.668,2.668,0,0,0,55.5,48.84Z" transform="translate(1366.052 1838)" fill="#505050"></path><path d="M5.595,4.44C2.445,4.44.7,6.66.7,9.825s1.74,5.385,4.89,5.385,4.89-2.235,4.89-5.385S8.745,4.44,5.595,4.44Zm0,9.75c-2.175,0-3.45-1.68-3.45-4.365S3.42,5.46,5.595,5.46s3.45,1.665,3.45,4.365S7.77,14.19,5.595,14.19ZM13.56,5.52c.1-.645.75-.87,1.725-.69V3.765a5.645,5.645,0,0,0-.915-.075,1.927,1.927,0,0,0-2.1,1.8c-.03.27-.045.66-.045.96v.66H11.37V8.1h.855V15h1.29V8.1H15.15V7.11H13.515V6.33A7.131,7.131,0,0,1,13.56,5.52Zm8.505,1.32c-1.635,0-2.745.87-2.745,2.325,0,1.395,1.14,1.98,2.565,2.37,1.335.36,1.875.765,1.875,1.53s-.69,1.155-1.545,1.155a1.715,1.715,0,0,1-1.86-1.56h-1.35a2.8,2.8,0,0,0,3.12,2.55c1.68,0,2.955-.75,2.955-2.25,0-1.35-.87-2.07-2.7-2.55-1.08-.285-1.74-.6-1.74-1.395,0-.69.42-1.185,1.32-1.185a1.628,1.628,0,0,1,1.68,1.485h1.35A2.668,2.668,0,0,0,22.065,6.84ZM31.2,15h1.29a13.792,13.792,0,0,1-.15-2.025V9.99c0-.345-.015-.735-.045-1.05-.135-1.3-.93-2.1-2.82-2.1a2.778,2.778,0,0,0-3.06,2.67h1.35c.09-1.1.63-1.68,1.71-1.68s1.485.48,1.545,1.215c.03.3.03.615.03.96v.21h-.51c-3.12,0-4.47.93-4.47,2.73a2.284,2.284,0,0,0,2.565,2.265,3.439,3.439,0,0,0,2-.495l.435-.855Zm-2.13-.78c-.975,0-1.59-.42-1.59-1.38,0-1.365,1.38-1.83,3.57-1.665v.81C31.05,13.425,30.27,14.22,29.07,14.22ZM35.835,3.975h-1.29v8.79c0,.435,0,.78.015,1.05.045,1.005.6,1.245,1.35,1.245a6.116,6.116,0,0,0,.915-.06v-.93c-.7.075-.945-.09-.975-.6-.015-.255-.015-.51-.015-.75Zm9,6.825c0-2.325-1.215-3.96-3.4-3.96-2.175,0-3.78,1.635-3.78,4.215,0,2.8,1.545,4.155,3.615,4.155a3.261,3.261,0,0,0,3.465-2.775H43.38a2,2,0,0,1-2.055,1.785c-1.17,0-2.16-.7-2.28-2.805h5.76A5.532,5.532,0,0,0,44.835,10.8ZM41.4,7.83c1.305,0,2.01.945,2.13,2.595H39.06C39.21,8.73,40.14,7.83,41.4,7.83Zm7.455-.99c-1.635,0-2.745.87-2.745,2.325,0,1.395,1.14,1.98,2.565,2.37,1.335.36,1.875.765,1.875,1.53s-.69,1.155-1.545,1.155a1.715,1.715,0,0,1-1.86-1.56H45.8a2.8,2.8,0,0,0,3.12,2.55c1.68,0,2.955-.75,2.955-2.25,0-1.35-.87-2.07-2.7-2.55-1.08-.285-1.74-.6-1.74-1.395,0-.69.42-1.185,1.32-1.185a1.628,1.628,0,0,1,1.68,1.485h1.35A2.668,2.668,0,0,0,48.855,6.84Zm10.935.03a2.034,2.034,0,0,0-1.11.36L57.96,8.3V7.05H56.67V15h1.29V10.47c0-1.815,1.02-2.61,2.37-2.52V6.975A1.2,1.2,0,0,0,59.79,6.87Zm8.175,3.93c0-2.325-1.215-3.96-3.4-3.96s-3.78,1.635-3.78,4.215c0,2.8,1.545,4.155,3.615,4.155a3.261,3.261,0,0,0,3.465-2.775H66.51a2,2,0,0,1-2.055,1.785c-1.17,0-2.16-.7-2.28-2.805h5.76A5.532,5.532,0,0,0,67.965,10.8ZM64.53,7.83c1.305,0,2.01.945,2.13,2.595H62.19C62.34,8.73,63.27,7.83,64.53,7.83Zm9.135-.99a3.529,3.529,0,0,0-2.1.63l-.6.855V7.05h-1.29V17.94h1.29V13.9l.525.78a3.434,3.434,0,0,0,1.9.525c2.055,0,3.885-1.365,3.885-4.305C77.28,8.58,75.99,6.84,73.665,6.84Zm-.27,7.38c-1.14,0-2.43-.78-2.43-2.835V10.95c0-2.28,1.185-3.12,2.5-3.12,1.59,0,2.4,1.425,2.4,3.225C75.87,13.14,74.79,14.22,73.4,14.22ZM81.15,6.84c-1.635,0-2.745.87-2.745,2.325,0,1.395,1.14,1.98,2.565,2.37,1.335.36,1.875.765,1.875,1.53s-.69,1.155-1.545,1.155a1.715,1.715,0,0,1-1.86-1.56H78.09a2.8,2.8,0,0,0,3.12,2.55c1.68,0,2.955-.75,2.955-2.25,0-1.35-.87-2.07-2.7-2.55-1.08-.285-1.74-.6-1.74-1.395,0-.69.42-1.185,1.32-1.185a1.628,1.628,0,0,1,1.68,1.485h1.35A2.668,2.668,0,0,0,81.15,6.84Zm14.76.21H94.62v1.1l-.525-.78a3.434,3.434,0,0,0-1.9-.525c-2.055,0-3.885,1.365-3.885,4.305,0,2.325,1.29,4.065,3.615,4.065a3.529,3.529,0,0,0,2.1-.63l.6-.855v.135c0,.24,0,.495-.015.87a2.278,2.278,0,0,1-2.49,2.43c-1.365,0-2.145-.675-2.25-1.65l-.015-.135H88.545l.015.15c.165,1.68,1.29,2.625,3.555,2.625,2.295,0,3.705-1.23,3.78-3.555.015-.435.015-1.05.015-1.545Zm-3.795,7.17c-1.59,0-2.4-1.425-2.4-3.225,0-2.085,1.08-3.165,2.475-3.165,1.14,0,2.43.78,2.43,2.835V11.1C94.62,13.38,93.435,14.22,92.115,14.22Zm6.72-9.78a.825.825,0,1,0,.825.825A.813.813,0,0,0,98.835,4.44ZM99.48,15V7.05H98.19V15Zm8.79-7.95H106.9l-2.385,7.005L102.09,7.05h-1.425L103.68,15h1.575Zm7.6,3.75c0-2.325-1.215-3.96-3.4-3.96s-3.78,1.635-3.78,4.215c0,2.8,1.545,4.155,3.615,4.155a3.261,3.261,0,0,0,3.465-2.775h-1.35a2,2,0,0,1-2.055,1.785c-1.17,0-2.16-.7-2.28-2.805h5.76A5.532,5.532,0,0,0,115.875,10.8ZM112.44,7.83c1.305,0,2.01.945,2.13,2.595H110.1C110.25,8.73,111.18,7.83,112.44,7.83Zm14.985-.78h-1.29v3.495c0,2.715-.99,3.645-2.235,3.645a1.7,1.7,0,0,1-1.845-1.515,10.8,10.8,0,0,1-.06-1.1V7.05H120.7v4.77a8.4,8.4,0,0,0,.075,1.365,2.568,2.568,0,0,0,2.79,2.025,3.139,3.139,0,0,0,2.07-.63l.495-.93V15h1.29Zm6.27-.21a3.529,3.529,0,0,0-2.1.63l-.6.855V7.05h-1.29V17.94h1.29V13.9l.525.78a3.434,3.434,0,0,0,1.9.525c2.055,0,3.885-1.365,3.885-4.305C137.31,8.58,136.02,6.84,133.7,6.84Zm-.27,7.38c-1.14,0-2.43-.78-2.43-2.835V10.95c0-2.28,1.185-3.12,2.505-3.12,1.59,0,2.4,1.425,2.4,3.225C135.9,13.14,134.82,14.22,133.425,14.22ZM5.67,36H6.96a13.792,13.792,0,0,1-.15-2.025V30.99c0-.345-.015-.735-.045-1.05-.135-1.3-.93-2.1-2.82-2.1a2.778,2.778,0,0,0-3.06,2.67h1.35c.09-1.095.63-1.68,1.71-1.68,1.065,0,1.485.48,1.545,1.215.03.3.03.615.03.96v.21H5.01c-3.12,0-4.47.93-4.47,2.73A2.284,2.284,0,0,0,3.105,36.21,3.439,3.439,0,0,0,5.1,35.715l.435-.855Zm-2.13-.78c-.975,0-1.59-.42-1.59-1.38,0-1.365,1.38-1.83,3.57-1.665v.81C5.52,34.425,4.74,35.22,3.54,35.22Zm6.93-8.7c.1-.645.75-.87,1.725-.69V24.765a5.645,5.645,0,0,0-.915-.075,1.927,1.927,0,0,0-2.1,1.8c-.03.27-.045.66-.045.96v.66H8.28v.99h.855V36h1.29V29.1H12.06v-.99H10.425v-.78A7.131,7.131,0,0,1,10.47,26.52Zm4.5,2.58h1.485v-.99H14.97V26.265H13.68V28.11H12.615v.99H13.68v4.635c0,.45,0,.78.015.99.075.99.585,1.4,1.575,1.4a6.835,6.835,0,0,0,1.1-.075V35.1c-1.005.12-1.32-.045-1.38-.81-.015-.21-.015-.345-.015-.615Zm9.48,2.7c0-2.325-1.215-3.96-3.405-3.96-2.175,0-3.78,1.635-3.78,4.215,0,2.805,1.545,4.155,3.615,4.155a3.261,3.261,0,0,0,3.465-2.775H23A2,2,0,0,1,20.94,35.22c-1.17,0-2.16-.705-2.28-2.805h5.76A5.532,5.532,0,0,0,24.45,31.8Zm-3.435-2.97c1.305,0,2.01.945,2.13,2.595h-4.47C18.825,29.73,19.755,28.83,21.015,28.83Zm8.265-.96a2.034,2.034,0,0,0-1.11.36L27.45,29.3V28.05H26.16V36h1.29V31.47c0-1.815,1.02-2.61,2.37-2.52v-.975A1.2,1.2,0,0,0,29.28,27.87Zm10.05-2.22h-.825a2.008,2.008,0,0,0-1.125.33l-2.19,1.365V28.71l2.85-1.695V36h1.29Zm6.03,2.19c-1.635,0-2.745.87-2.745,2.325,0,1.395,1.14,1.98,2.565,2.37,1.335.36,1.875.765,1.875,1.53s-.69,1.155-1.545,1.155a1.715,1.715,0,0,1-1.86-1.56H42.3a2.8,2.8,0,0,0,3.12,2.55c1.68,0,2.955-.75,2.955-2.25,0-1.35-.87-2.07-2.7-2.55-1.08-.285-1.74-.6-1.74-1.4,0-.69.42-1.185,1.32-1.185a1.628,1.628,0,0,1,1.68,1.485h1.35A2.668,2.668,0,0,0,45.36,27.84Zm6.12,1.26h1.485v-.99H51.48V26.265H50.19V28.11H49.125v.99H50.19v4.635c0,.45,0,.78.015.99.075.99.585,1.4,1.575,1.4a6.835,6.835,0,0,0,1.1-.075V35.1c-1.005.12-1.32-.045-1.38-.81-.015-.21-.015-.345-.015-.615ZM62.43,36h1.29a13.792,13.792,0,0,1-.15-2.025V30.99c0-.345-.015-.735-.045-1.05-.135-1.3-.93-2.1-2.82-2.1a2.778,2.778,0,0,0-3.06,2.67h1.35c.09-1.095.63-1.68,1.71-1.68s1.485.48,1.545,1.215c.03.3.03.615.03.96v.21h-.51c-3.12,0-4.47.93-4.47,2.73a2.284,2.284,0,0,0,2.565,2.265,3.439,3.439,0,0,0,1.995-.495l.435-.855Zm-2.13-.78c-.975,0-1.59-.42-1.59-1.38,0-1.365,1.38-1.83,3.57-1.665v.81C62.28,34.425,61.5,35.22,60.3,35.22Zm7.08-6.12h1.485v-.99H67.38V26.265H66.09V28.11H65.025v.99H66.09v4.635c0,.45,0,.78.015.99.075.99.585,1.4,1.575,1.4a6.835,6.835,0,0,0,1.1-.075V35.1c-1.005.12-1.32-.045-1.38-.81-.015-.21-.015-.345-.015-.615Zm4.695,0H73.56v-.99H72.075V26.265h-1.29V28.11H69.72v.99h1.065v4.635c0,.45,0,.78.015.99.075.99.585,1.4,1.575,1.4a6.835,6.835,0,0,0,1.1-.075V35.1c-1.005.12-1.32-.045-1.38-.81-.015-.21-.015-.345-.015-.615Zm9.48,2.7c0-2.325-1.215-3.96-3.4-3.96s-3.78,1.635-3.78,4.215c0,2.805,1.545,4.155,3.615,4.155a3.261,3.261,0,0,0,3.465-2.775H80.1a2,2,0,0,1-2.055,1.785c-1.17,0-2.16-.705-2.28-2.805h5.76A5.532,5.532,0,0,0,81.555,31.8ZM78.12,28.83c1.305,0,2.01.945,2.13,2.595H75.78C75.93,29.73,76.86,28.83,78.12,28.83Zm15.72.945a2.254,2.254,0,0,0-2.415-1.935,2.6,2.6,0,0,0-1.68.465l-.7,1.02a2.249,2.249,0,0,0-2.3-1.485,2.6,2.6,0,0,0-1.68.465l-.51.9V28.05h-1.29V36h1.29V32.07c0-2.415.735-3.21,1.74-3.21a1.43,1.43,0,0,1,1.59,1.335,13.8,13.8,0,0,1,.06,1.545V36h1.29V32.07c0-2.415.735-3.21,1.74-3.21a1.43,1.43,0,0,1,1.59,1.335,13.8,13.8,0,0,1,.06,1.545V36h1.29V31.14A8.4,8.4,0,0,0,93.84,29.775Zm6.24-1.935a3.529,3.529,0,0,0-2.1.63l-.6.855V28.05H96.09V38.94h1.29V34.9l.525.78a3.434,3.434,0,0,0,1.9.525c2.055,0,3.885-1.365,3.885-4.305C103.695,29.58,102.405,27.84,100.08,27.84Zm-.27,7.38c-1.14,0-2.43-.78-2.43-2.835V31.95c0-2.28,1.185-3.12,2.5-3.12,1.59,0,2.4,1.425,2.4,3.225C102.285,34.14,101.205,35.22,99.81,35.22Zm6.99-6.12h1.485v-.99H106.8V26.265h-1.29V28.11h-1.065v.99h1.065v4.635c0,.45,0,.78.015.99.075.99.585,1.4,1.575,1.4a6.835,6.835,0,0,0,1.1-.075V35.1c-1.005.12-1.32-.045-1.38-.81-.015-.21-.015-.345-.015-.615Z" transform="translate(1366.052 1984)" fill="#505050"></path><line y2="163" transform="translate(1248.552 1518.5)" fill="none" stroke="#02cafc" stroke-width="5" stroke-dasharray="10"></line><path d="M3081,1922h258.447" transform="translate(-2118.948 -50)" fill="none" stroke="#0097be" stroke-width="5" stroke-dasharray="10"></path><path d="M3081,1922h258.447" transform="translate(-2118.948 80)" fill="none" stroke="#004050" stroke-width="5" stroke-dasharray="10"></path><path d="M3081,1922h110.224" transform="translate(-2096.948 -180)" fill="none" stroke="#0097be" stroke-width="5" stroke-dasharray="10"></path><path d="M3149,1650h86.691v273.6" transform="translate(-2127.948 -50)" fill="none" stroke="#0097be" stroke-width="5" stroke-dasharray="10"></path></g></svg>